<?xml version="1.0" encoding="UTF-8" standalone="no"?>
<svg
   xmlns:dc="http://purl.org/dc/elements/1.1/"
   xmlns:cc="http://creativecommons.org/ns#"
   xmlns:rdf="http://www.w3.org/1999/02/22-rdf-syntax-ns#"
   xmlns:svg="http://www.w3.org/2000/svg"
   xmlns="http://www.w3.org/2000/svg"
   xmlns:sodipodi="http://sodipodi.sourceforge.net/DTD/sodipodi-0.dtd"
   xmlns:inkscape="http://www.inkscape.org/namespaces/inkscape"
   width="78.496056mm"
   height="87.981522mm"
   viewBox="0 0 78.496056 87.981522"
   version="1.1"
   id="svg2231"
   inkscape:version="1.0.1 (3bc2e813f5, 2020-09-07, custom)"
   sodipodi:docname="projects.svg">
  <defs
     id="defs2225" />
  <sodipodi:namedview
     id="base"
     pagecolor="#ffffff"
     bordercolor="#666666"
     borderopacity="1.0"
     inkscape:pageopacity="0.0"
     inkscape:pageshadow="2"
     inkscape:zoom="0.35"
     inkscape:cx="148.33902"
     inkscape:cy="166.26428"
     inkscape:document-units="mm"
     inkscape:current-layer="layer1"
     inkscape:document-rotation="0"
     showgrid="false"
     inkscape:window-width="838"
     inkscape:window-height="996"
     inkscape:window-x="0"
     inkscape:window-y="0"
     inkscape:window-maximized="1" />
  <metadata
     id="metadata2228">
    <rdf:RDF>
      <cc:Work
         rdf:about="">
        <dc:format>image/svg+xml</dc:format>
        <dc:type
           rdf:resource="http://purl.org/dc/dcmitype/StillImage" />
        <dc:title></dc:title>
      </cc:Work>
    </rdf:RDF>
  </metadata>
  <g
     inkscape:label="Layer 1"
     inkscape:groupmode="layer"
     id="layer1"
     transform="translate(-66.585302,-104.17591)">
    <path
       d="m 105.89014,113.49094 c -8.330509,0 -14.95704,3.10501 -19.8796,9.31501 -4.88472,6.21002 -7.327069,14.67305 -7.327069,25.38912 0,10.67819 2.442349,19.12229 7.327069,25.33231 4.92256,6.21003 11.549091,9.31504 19.8796,9.31504 8.33049,0 14.91917,-3.10501 19.76601,-9.31504 4.88471,-6.21002 7.32707,-14.65412 7.32707,-25.33231 0,-10.71607 -2.44236,-19.1791 -7.32707,-25.38912 -4.84684,-6.21 -11.43552,-9.31501 -19.76601,-9.31501 z m 0,-9.31503 c 11.88989,0 21.39425,3.99486 28.51305,11.98457 7.1188,7.95186 10.67817,18.63003 10.67817,32.03459 0,13.36667 -3.55937,24.04486 -10.67817,32.03458 -7.1188,7.95186 -16.62316,11.92778 -28.51305,11.92778 -11.92776,0 -21.46996,-3.97592 -28.62664,-11.92778 -7.11879,-7.95183 -10.678198,-18.63002 -10.678198,-32.03458 0,-13.40456 3.559408,-24.08273 10.678199,-32.03459 7.156679,-7.98971 16.698881,-11.98457 28.626639,-11.98457 z"
       style="font-style:normal;font-variant:normal;font-weight:normal;font-stretch:normal;font-size:50.8px;line-height:1.25;font-family:sans-serif;-inkscape-font-specification:'sans-serif, Normal';font-variant-ligatures:normal;font-variant-caps:normal;font-variant-numeric:normal;font-variant-east-asian:normal;letter-spacing:0px;word-spacing:0px;fill:#020202;fill-opacity:1;stroke:none;stroke-width:0.605856"
       id="path1102-1-3-3"
       sodipodi:nodetypes="scscscscsscscscscs" />
    <path
       id="path2083"
       style="font-variation-settings:normal;opacity:1;vector-effect:none;fill:#030303;fill-opacity:1;stroke:#00000c;stroke-width:0;stroke-linecap:butt;stroke-linejoin:miter;stroke-miterlimit:4;stroke-dasharray:none;stroke-dashoffset:0;stroke-opacity:1;stop-color:#000000;stop-opacity:1"
       d="m 133.31678,137.85003 a 10.397696,10.397696 0 0 0 2.84616,-9.99963 l -4.5997,4.45695 8e-4,0.002 -3.734,3.61768 -5.48413,-1.92381 -1.75088,-5.54228 3.24713,-3.14568 -2.6e-4,-0.002 5.0854,-4.92781 a 10.397696,10.397696 0 0 0 -10.08498,2.53425 10.397696,10.397696 0 0 0 -2.48699,11.14516 l -23.764065,23.0381 0.141745,0.14621 a 10.397696,10.397696 0 0 0 -11.420009,2.05338 10.397696,10.397696 0 0 0 -0.228057,14.70266 10.397696,10.397696 0 0 0 14.702656,0.22805 10.397696,10.397696 0 0 0 2.406954,-11.35044 l 0.141372,0.14583 23.764074,-23.038 a 10.397696,10.397696 0 0 0 11.21692,-2.14013 z m -40.749654,32.26441 -2.775254,1.75351 -3.249277,-0.19441 -2.482663,-2.0684 -0.767314,-3.15209 1.240572,-3.03242 2.775251,-1.75353 3.249279,0.19442 2.482663,2.06838 0.767316,3.15212 z" />
    <path
       id="rect2173"
       style="font-variation-settings:normal;opacity:1;vector-effect:none;fill:#010101;fill-opacity:1;stroke:#00000c;stroke-width:0;stroke-linecap:butt;stroke-linejoin:miter;stroke-miterlimit:4;stroke-dasharray:none;stroke-dashoffset:0;stroke-opacity:1;stop-color:#000000;stop-opacity:1"
       d="m 120.82923,161.25132 c -2.00332,-2.49679 -3.92386,-4.73533 -5.23272,-6.32216 -10.87537,-13.60931 -21.763422,-27.32064 -32.630621,-40.97717 -4.100661,17.97304 9.714412,32.54074 22.457341,49.33521 l 5.70177,-4.53719 c -0.48315,1.70719 12.2112,16.46279 12.2112,16.46279 -0.72137,1.91503 -1.83947,0.73309 -0.53841,2.36807 1.69539,2.13044 3.70807,3.34957 5.8386,1.65429 3.23974,-2.7368 -1.87597,-10.45603 -6.94519,-16.89899 -0.28768,-0.36635 -0.57567,-0.72825 -0.86198,-1.08484 z m 6.75802,14.54653 a 1.6433572,1.6433572 0 0 1 -0.26266,2.30928 1.6433572,1.6433572 0 0 1 -2.30927,-0.26266 1.6433572,1.6433572 0 0 1 0.26266,-2.30927 1.6433572,1.6433572 0 0 1 2.30927,0.26265 z" />
  </g>
</svg>
